<?xml version="1.0" encoding="utf-8"?>
<!-- Generator: Adobe Illustrator 25.4.1, SVG Export Plug-In . SVG Version: 6.00 Build 0)  -->
<svg version="1.1" id="Layer_1" xmlns="http://www.w3.org/2000/svg" xmlns:xlink="http://www.w3.org/1999/xlink" x="0px" y="0px"
	 viewBox="0 0 455.6 508.1" style="enable-background:new 0 0 455.6 508.1;" xml:space="preserve">
<style type="text/css">
	.st0{opacity:0.5;fill:none;stroke:#263768;stroke-width:5;stroke-linecap:round;stroke-linejoin:round;}
	.st1{opacity:0.5;fill:none;stroke:#263768;stroke-width:4.88;stroke-linecap:round;stroke-linejoin:round;}
	.st2{opacity:0.5;fill:none;stroke:#263768;stroke-width:4.79;stroke-linecap:round;stroke-linejoin:round;}
	.st3{opacity:0.5;fill:none;stroke:#263768;stroke-width:4.94;stroke-linecap:round;stroke-linejoin:round;}
	.st4{opacity:0.5;fill:none;stroke:#263768;stroke-width:5.64;stroke-linecap:round;stroke-linejoin:round;}
	.st5{opacity:0.5;fill:none;stroke:#263768;stroke-width:5.84;stroke-linecap:round;stroke-linejoin:round;}
</style>
<path class="st0" d="M292.4,36.2c-60.7,68.5-66.1,112.7-59,140.8c6.3,25,25.1,47.3,28.8,92.6c1.4,17.5,0.4,35.1-3,52.3"/>
<path class="st0" d="M279.2,253.4c3.7,17.1,4.2,34.7,1.4,52c-3.2,19.4-8.6,24.7-11.5,27c-9.1,7.1-24.2,8.7-30.3,2.2
	c-6.3-6.7,0.5-18.1,3.4-38.5c3.2-23.2-1.1-41.1-5.1-57.9c-9-37.7-28.3-47.8-36.1-68.2c-9.4-24.5-3.3-66.6,69.1-143.5"/>
<path class="st0" d="M276.7,240.5c-0.7-5.4-2.1-10.7-4.1-15.8c-1.1-2.8-2.4-5.5-3.8-8.1"/>
<path class="st0" d="M261.4,199.7c-6.3-11.6-10.2-24.4-11.4-37.6c-5.3-62.8,56.4-107,62.1-111"/>
<path class="st0" d="M170.7,199.2c-2.1,0.8-40.9,10-47.5,46.5c-6.7,37.3,22,62.7,27,66.9c6.9,5.8,25.8,21.8,44.6,15.4
	c22.2-7.5,25.6-40,26-44.1c2-19.2-2.9-54.8-27.6-61.3c-21.3-5.6-50.2,12.3-51.4,35.1c-1,19,17.5,40.1,33,37.6
	c10.1-1.6,21.6-13.5,19.1-25.7c-2.2-10.9-14.3-15.5-15.4-15.9"/>
<path class="st0" d="M207.8,208c-4.4-7.8-13.2-12.2-22.1-11.1"/>
<path class="st0" d="M172.9,275.3c-5.3,0.8-10.3-2.8-11.1-8.1c-0.4-2.5,0.2-5.1,1.7-7.2"/>
<path class="st0" d="M251.2,17c-11.3,11.5-29.2,35-36.9,45c-24.2,31.3-42.4,54.4-44.2,69.4c-2.2,18.3,2.3,35.6,8,45.5"/>
<path class="st0" d="M178.2,177c-9,1.4-17.8,3.7-26.3,6.8c-14.3,5.3-39.3,14.6-53.6,38.9c-3.7,6.3-9.6,18.6-10.2,36.8"/>
<path class="st0" d="M155.2,166.4c-6.8-12.1-8.9-26.3-5.8-39.9"/>
<path class="st0" d="M141.9,169.2c-17.3,3.1-33.2,11.4-45.6,23.9c-23.9,24.4-24,55.1-23.9,61.2"/>
<path class="st0" d="M216.7,338.8c-0.1,4.3-0.1,20.6,10.6,28.7c15,11.3,39.5-1.8,50.3-9.8c25.2-18.9,29-51,30.7-64.7
	c3.8-32.4-6.4-59.4-14.3-80.4c-3.9-10.4-8.6-20.5-13.9-30.2"/>
<path class="st0" d="M274.7,162.2c-2.2-4.8-3.4-10.1-3.6-15.4c-0.6-21.2,16.4-35.4,19.2-37.6"/>
<path class="st0" d="M338.2,66.8c-14.2,5.9-26.6,15.5-35.7,27.8"/>
<path class="st0" d="M198.2,348.9c-16.1,8.8-28.6,8-34.4,7.1c-28.6-4.5-43.7-35.3-51.2-50.7c-6.5-13.5-10.7-28-12.3-42.9"/>
<path class="st0" d="M204.9,373c-6.8,4.7-19,11.8-34.9,12c-29.8,0.5-50.2-23.5-61.1-36.4c-22.4-26.5-28-55.9-29.6-71
	c-7-2.1-14.2-3.6-21.5-4.4c-13.6-1.4-27.3-0.5-40.6,2.7"/>
<path class="st0" d="M356.9,85.8c-11.6,7.9-21.9,17.4-30.7,28.3c-11,13.6-20.2,25-21.5,41.4c-1.7,22.1,11.9,39,17,44.8"/>
<path class="st0" d="M332.3,219.5c6,17.4,8.5,35.7,7.5,54.1c-2.5,40.8-22.5,68.2-30.3,78.5c-9.7,12.9-20,26.6-39.6,34.9
	c-13.7,5.7-28.8,7.6-43.5,5.6"/>
<path class="st0" d="M369.4,100.4c-5.6,2.9-23.6,13.2-32.4,35.2c-8.6,21.4-3.1,40.6-0.7,48.5c6,19.8,16.2,26.2,24.1,39.2
	c9.7,15.9,16.5,42.5,2,89.2"/>
<path class="st0" d="M357.3,325c-8.4,16.2-19.8,30.8-33.5,42.9"/>
<path class="st0" d="M312.8,380.6c-10.1,7.7-20.9,14.4-32.4,19.9c-12.1,5.8-23.5,11.2-39.3,12.4c-5.5,0.4-11.1,0.3-16.6-0.3"/>
<path class="st0" d="M133,153.1c-2.6-9.9-3.3-20.2-2.2-30.3c1.9-17.1,8.6-28.3,19.7-46.2c15.3-24.8,32.1-42.9,50.6-62.8
	c4.5-4.8,8.2-8.7,10.7-11.3"/>
<path class="st1" d="M227.1,14.2c-14,14.8-35.3,37.6-50,58.6c-9.7,13.9-16.6,24.7-21.4,39.9"/>
<path class="st2" d="M20.4,289.8c8.3-1.3,16.7-2,25.1-2.2c6.7-0.2,13.1,0,19,0.4"/>
<path class="st2" d="M59.6,253.4c-15.6-0.7-31.2,1-46.2,5"/>
<path class="st0" d="M212,398c-8.8,4.4-24.6,10.7-44.5,9.8c-39.8-1.9-65-31.6-74.2-42.4c-14-16.6-23.7-36.4-28.4-57.7"/>
<path class="st0" d="M54.1,236.8c0.1-9,1.8-18,4.9-26.5c4.7-12.5,12.3-23.7,22.3-32.5"/>
<path class="st0" d="M121.2,156.8c-5.1,0.9-10.1,2.4-14.9,4.5c-4.6,2-11.6,6-15.3,9.4"/>
<path class="st0" d="M114.7,144.4"/>
<path class="st0" d="M430,416.5c-27.6,54.6-83.6,89-144.8,89.1"/>
<path class="st0" d="M274.4,505.2c-4.5,0.4-13-0.5-17.2-1.2c-10.5-1.8-13.2-2.4-19.3-4.6"/>
<path class="st3" d="M321.5,402.3c-12.3,10.1-44.6,33.9-92.5,36.9c-69,4.3-122.2-34.7-131.4-43"/>
<path class="st0" d="M87.9,385.1C68,362.7,54.4,335.4,48.6,306"/>
<path class="st0" d="M46.7,341.2l-8.9-29.8l-8.6-0.6"/>
<path class="st0" d="M41.4,235.2c-11,0.2-22,2.6-32.1,6.9"/>
<path class="st0" d="M91.6,24.8c-0.9,2.5-1.7,5-2.5,7.5c-1.5,4.4-5.4,7.6-10.1,8l-14.6,1.3"/>
<path class="st0" d="M110.4,19.1c-1.8,10.1-6.8,19.3-14.3,26.4C79.1,61.2,56.8,57.7,54,57.2"/>
<path class="st0" d="M74.2,69.3c-1.6,1.3-7.6,3.3-16.1,3.6c-4.8,0.2-9.7-2.4-11.6-3.6"/>
<path class="st0" d="M126.6,9.1c0.3,8.1-1.1,16.2-4.2,23.7C113.2,55.1,92.5,64,87.6,66"/>
<path class="st0" d="M185.9,4.3c-38.2,30.8-66.7,72-82,118.6"/>
<path class="st0" d="M94.4,138.1c-13,7.3-24.7,16.5-34.9,27.3c-14.3,15.4-25.1,33.6-31.6,53.5"/>
<path class="st0" d="M451.6,330.6c-5.9,17.3-11.6,40.6-25.9,67.5c-12.1,22.6-34.4,52.8-51.4,63.3"/>
<path class="st0" d="M384.7,121.5c-9,6.2-20.3,16.2-22.5,30.3c-2.2,14.7,6.9,25.2,17.2,47c8,17.1,14,35.1,17.7,53.7"/>
<path class="st0" d="M397.4,269.9c-0.6,12.3-2.5,24.5-5.8,36.4c-5.4,19.2-14.1,37.3-25.8,53.5c-6.7,9.3-14.4,18-22.9,25.8"/>
<path class="st0" d="M160.1,2.6c-14.5,18.1-28,36.9-40.4,56.5c-8.3,13.2-15.7,26-22.2,38.3"/>
<path class="st0" d="M87.8,119.8c-10.7,5.4-18.4,10.2-32.7,21.3c-17.5,13.5-31.3,31.2-39.9,51.6c-3.7,8.7-8.6,20.1-9,25.5"/>
<path class="st0" d="M398,139.2c-1.9,1.4-12.1,9.4-13.7,23.7c-0.7,7.2,0.9,14.5,4.5,20.7"/>
<path class="st4" d="M87.5,102.1c-10.2,3.5-19.9,8.1-29.2,13.6c-28,16.8-45.3,39.2-55.5,55.9"/>
<path class="st4" d="M84.2,86.2c-24.6,7.2-47.8,18.6-68.4,33.9"/>
<path class="st4" d="M391.5,373.9c-14.9,19.3-32.4,36.4-52.1,50.8c-19,13.9-48.4,35.3-92.8,41.8c-52.9,7.6-106.5-8.3-146.6-43.7"/>
<path class="st4" d="M86.6,408.8c-5.3-4.4-10.2-9.2-14.7-14.4c-10.5-12.3-18.5-26.5-23.4-41.9"/>
<path class="st4" d="M400.9,358.7c6.7-12.1,11.8-25.1,15-38.6c12-50.8-5.9-93.9-14.3-111"/>
<path class="st4" d="M452.7,299.8c-2.9,0.8-5.7,2.1-8.2,3.9c-8.9,6.5-10.8,17.5-11.6,21.2c-4.5,22.8-17.5,50-23,59.9
	c-11.6,21.1-28.2,38.7-40.6,48.5c-13.8,10.8-20.8,14.2-30.7,18.9"/>
<path class="st4" d="M415.3,160.8c-3,1.9-5.4,4.6-6.9,7.8c-2.8,6.3-0.7,13.1,3.9,23.5c6.6,14.8,9.4,16.7,14,26.6
	c9.4,20.9,12.2,44.1,8.1,66.6"/>
<path class="st4" d="M452.2,283.7c-0.1-8.7-0.7-17.3-1.8-25.9c-3.6-27.5-12-54.1-24.9-78.6"/>
<path class="st5" d="M358.6,468.9c-13,8.1-26.9,14.5-41.5,19.2"/>
<path class="st4" d="M316,464.9c-10.8,6.4-45.6,20.7-75.2,22.8c-21.3,1.5-42.6-1.9-62.4-9.8"/>
</svg>
