<?xml version="1.0" encoding="utf-8"?>
<!-- Generator: Adobe Illustrator 25.4.1, SVG Export Plug-In . SVG Version: 6.00 Build 0)  -->
<svg version="1.1" id="Layer_1" xmlns="http://www.w3.org/2000/svg" xmlns:xlink="http://www.w3.org/1999/xlink" x="0px" y="0px"
	 viewBox="0 0 447.2 511.3" style="enable-background:new 0 0 447.2 511.3;" xml:space="preserve">
<style type="text/css">
	.st0{opacity:0.75;fill:none;stroke:#263768;stroke-width:5;stroke-linecap:round;stroke-linejoin:round;}
	.st1{opacity:0.75;fill:none;stroke:#263768;stroke-width:4.88;stroke-linecap:round;stroke-linejoin:round;}
	.st2{opacity:0.75;fill:none;stroke:#263768;stroke-width:4.79;stroke-linecap:round;stroke-linejoin:round;}
	.st3{opacity:0.75;fill:none;stroke:#263768;stroke-width:4.94;stroke-linecap:round;stroke-linejoin:round;}
	.st4{opacity:0.75;fill:none;stroke:#263768;stroke-width:5.64;stroke-linecap:round;stroke-linejoin:round;}
	.st5{opacity:0.75;fill:none;stroke:#263768;stroke-width:5.84;stroke-linecap:round;stroke-linejoin:round;}
</style>
<path class="st0" d="M2.5,306.7c89.3,20.1,130.6,3.5,151.8-16.3c18.8-17.6,29.3-44.8,67.2-69.9c14.6-9.7,30.6-17.3,47.3-22.6"/>
<path class="st0" d="M199,213.5c13.2-11.5,28.4-20.4,44.8-26.3c18.6-6.6,25.8-4.4,29.3-3c10.6,4.5,19.3,17,16.6,25.5
	c-2.8,8.8-16.1,8.3-35.3,15.6c-21.9,8.4-35.5,20.8-48.3,32.4c-28.6,26.1-28.2,47.8-42.3,64.5c-17,20-56.8,35-159,8.8"/>
<path class="st0" d="M189,221.9c-4.4,3.2-8.4,7-11.9,11.2c-1.9,2.3-3.7,4.7-5.3,7.3"/>
<path class="st0" d="M160.6,254.9c-7.1,11.2-16.5,20.7-27.4,28.1c-52.4,35-121,2.3-127.1-0.8"/>
<path class="st0" d="M203.9,334.6c1.8,1.5,28.5,31,63.7,19.2c35.9-12.1,44.3-49.6,45.5-55.9c1.8-8.8,6.6-33.1-8-46.5
	c-17.3-15.8-47.4-3.1-51.2-1.5c-17.8,7.5-46.5,29-40.3,53.7c5.4,21.4,35,38,55.5,28.1c17.1-8.3,26.7-34.7,17.1-47
	c-6.3-8-22.3-12.4-31.7-4.3c-8.5,7.2-6.6,20-6.5,21.1"/>
<path class="st0" d="M193.7,297.8c-2.2,3.6-3.4,7.7-3.3,11.9c0.1,4.6,1.6,9,4.3,12.8"/>
<path class="st0" d="M269.5,295.9c3.3,4.3,2.5,10.4-1.7,13.7c-2,1.6-4.6,2.3-7.1,2"/>
<path class="st0" d="M5.5,352.1c15.6,4.4,44.7,8.6,57.2,10.6c39.1,6.1,68.1,10.8,82.1,5.2c17-6.9,30.1-19.2,36-29"/>
<path class="st0" d="M180.9,338.8c5.5,7.2,11.8,13.8,18.7,19.8c11.6,10,31.7,27.4,59.9,28.2c7.3,0.2,20.9-0.5,37.2-8.8"/>
<path class="st0" d="M182.7,364c-7.3,11.8-18.8,20.5-32.2,24.3"/>
<path class="st0" d="M191.6,374.3c11,13.7,26,23.6,42.9,28.4c32.9,9.1,59.8-5.6,65.2-8.6"/>
<path class="st0" d="M304,227c3.8-2,18.1-9.8,20-23.1c2.7-18.6-20.6-33.8-32.9-39.3c-28.7-13-58.7-0.8-71.4,4.4
	c-30.3,12.3-49,34.3-63.6,51.3c-7.2,8.4-13.8,17.4-19.8,26.7"/>
<path class="st0" d="M121.3,261.4c-3.2,4.3-7.2,7.9-11.7,10.6c-18.3,10.8-38.9,2.7-42.2,1.4"/>
<path class="st0" d="M7.1,251.9c7.1,5.7,15,10.2,23.5,13.4c5.9,2.2,11.9,3.7,18.1,4.5"/>
<path class="st0" d="M321.8,238.2c15.5,9.9,20.8,21.2,22.8,26.7c9.9,27.2-9.9,55.3-19.7,69.3c-8.6,12.2-19.3,22.9-31.6,31.5"/>
<path class="st0" d="M339.7,220.8c7.4,3.6,19.5,11,27.4,24.7c14.9,25.9,3.7,55.2-2.3,71.1c-12.3,32.4-35.5,51.5-47.9,60.2
	c4.4,20.6,14.2,39.7,28.5,55.2"/>
<path class="st0" d="M14.7,226.3c12.5,6.3,25.8,10.8,39.6,13.2c17.2,3.1,31.6,5.6,46.6-1.1c20.1-9.1,28.5-29.3,31-36.5"/>
<path class="st0" d="M143.7,183.3c12.3-13.7,27.2-24.7,43.8-32.6c36.9-17.5,70.6-13.2,83.4-11.3c16,2.3,33,4.7,49.7,17.8
	c11.6,9.3,20.6,21.5,25.9,35.4"/>
<path class="st0" d="M21.5,208.3c5.3,3.5,23,14.3,46.4,11.4c22.9-2.8,37.1-16.9,42.8-22.9c14.4-14.8,15.2-26.9,22.7-40
	c9.2-16.2,29.3-35,77.1-44.8"/>
<path class="st0" d="M224.1,110.4c18.3-0.5,36.5,2.4,53.7,8.6"/>
<path class="st0" d="M294.2,122.6c11.6,5.1,22.7,11.4,33.1,18.7c11,7.8,21.1,15.1,29.9,28.4c3.1,4.6,5.6,9.6,7.7,14.7"/>
<path class="st0" d="M181.8,389.9c-7.4,7-16.1,12.6-25.5,16.6c-15.9,6.6-28.9,6.1-50,5c-29.1-1.5-53-7.4-79.4-14
	c-6.4-1.6-11.6-3-15-3.9"/>
<path class="st1" d="M14.6,374.5c19.7,5.1,50,12.8,75.5,15.5c16.9,1.8,29.7,2.6,45.3-0.5"/>
<path class="st2" d="M355.9,422.4c-5.1-6.7-9.8-13.7-14-20.9c-3.4-5.8-6.3-11.4-8.8-16.8"/>
<path class="st2" d="M305,405.7c6.9,14,15.9,26.8,26.7,38.1"/>
<path class="st0" d="M358.1,202.5c12.8,8.7,23.1,20.5,30,34.2c17.6,35.8,3.7,72.2-1.3,85.5c-7.8,20.3-20.4,38.4-36.8,52.7"/>
<path class="st0" d="M293.2,418.5c-8,4.3-16.6,7.1-25.5,8.5c-13.2,2-26.7,0.6-39.2-3.8"/>
<path class="st0" d="M190.7,398.4c3.2,4.1,6.9,7.7,11.1,10.9c4,3,10.8,7.3,15.7,8.9"/>
<path class="st0" d="M183,410.1"/>
<path class="st0" d="M269.1,2.6C330.2,0.4,387.4,32.8,417,86.4"/>
<path class="st0" d="M421.9,96.1c2.5,3.7,5.9,11.6,7.2,15.6c3.5,10,4.3,12.8,5.3,19.1"/>
<path class="st3" d="M309,104.5c14.8,5.9,51.2,22.8,77,63.2c37.1,58.3,28.6,123.8,25.8,135.8"/>
<path class="st0" d="M406.8,317.4c-10,28.3-27.4,53.3-50.3,72.6"/>
<path class="st0" d="M388.1,374.6l-21.8,22.2c1.2,2.6,2.4,5.2,3.6,7.8"/>
<path class="st0" d="M297.9,430.4c5.5,9.6,12.8,18,21.5,24.9"/>
<path class="st0" d="M89.4,488.1l7.8-1.4c4.6-0.8,9.2,1.1,11.8,5l8.2,12.2"/>
<path class="st0" d="M75.3,474.4c9.7-3.3,20.2-3.3,30-0.2c22,7.3,29.7,28.5,30.6,31.2"/>
<path class="st0" d="M136.7,481.9c1.9,0.8,6.5,5,11,12.4c2.5,4.1,2.6,9.7,2.4,12"/>
<path class="st0" d="M58.8,465c7-4.2,14.7-6.8,22.8-7.8c23.9-2.7,41.7,11.1,45.8,14.5"/>
<path class="st0" d="M26,415.4c45.4,18.6,95.2,23.7,143.4,14.6"/>
<path class="st0" d="M187.3,430.9c30.7,19.1,67.4,26,102.9,19.3"/>
<path class="st0" d="M183.4,25.2c18-3.1,41.2-9.5,71.6-9.9c25.6-0.4,62.9,4.6,80.3,14.5"/>
<path class="st0" d="M32.6,184.6c9.7,4.9,24,10,37.4,5.1c14-5.1,18.7-18.2,32.9-37.7c11.1-15.3,24.1-29.2,38.5-41.4"/>
<path class="st0" d="M156.4,102c11.1-5.5,22.7-9.7,34.7-12.5c19.4-4.5,39.5-5.6,59.3-3.2c11.4,1.4,22.7,3.9,33.6,7.6"/>
<path class="st0" d="M36.8,438.8c22.8,4,45.9,6.7,69,8.1c15.6,0.9,30.4,1.2,44.3,1"/>
<path class="st0" d="M174.4,445.5c10,6.8,17.8,11.2,34.4,18.4c20.2,8.9,42.4,12.3,64.4,10.1c9.4-1,21.7-2.2,26.6-4.4"/>
<path class="st0" d="M41.7,164.5c2.1,1,14.1,6,27.3,0.5c6.7-2.8,12.2-7.7,15.9-14"/>
<path class="st4" d="M159.1,454.4c8,7.2,16.7,13.6,26,19c28.1,16.4,56.1,20.7,75.7,21.6"/>
<path class="st4" d="M146.8,464.9c18.2,18.1,39.4,32.9,62.7,43.6"/>
<path class="st4" d="M250.4,56.9c24.1,3.7,47.6,10.8,69.7,21.1c21.4,10,54.3,25.3,81.5,61.1c32.2,42.7,44.1,97.3,32.5,149.5"/>
<path class="st4" d="M428.1,307.1c-1.3,6.8-3.1,13.4-5.5,19.9c-5.7,15.1-14.3,29-25.4,40.8"/>
<path class="st4" d="M232.5,56c-13.9-0.1-27.6,1.8-41,5.5c-50.3,14-79.4,50.5-90.3,66.1"/>
<path class="st4" d="M155.9,39c2.1,2.2,4.6,4,7.3,5.3c9.9,4.6,20.6,1.1,24.2-0.1c22.1-7,52.2-8.8,63.6-8.8c24.1,0,47.5,6,62.1,12.2
	c16.1,6.8,22.5,11.3,31.3,17.8"/>
<path class="st4" d="M52.2,138.9c3.1,1.7,6.6,2.6,10.2,2.3c6.9-0.6,11.9-5.7,18.7-14.7c9.8-12.9,10.1-16.3,16.5-25.1
	c13.7-18.3,32.7-32,54.4-39.3"/>
<path class="st4" d="M142.1,47.3c-7.5,4.3-14.8,9-21.8,14.1C97.9,77.8,78.7,98,63.4,121.1"/>
<path class="st5" d="M349.5,39.9c13.3,7.5,25.7,16.6,36.8,27.1"/>
<path class="st4" d="M366.5,79.1c10.8,6.4,40.2,30,56.3,54.9c11.6,17.9,18.9,38.2,21.5,59.3"/>
</svg>
