<?xml version="1.0" encoding="utf-8"?>
<!-- Generator: Adobe Illustrator 25.4.1, SVG Export Plug-In . SVG Version: 6.00 Build 0)  -->
<svg version="1.1" id="Layer_1" xmlns="http://www.w3.org/2000/svg" xmlns:xlink="http://www.w3.org/1999/xlink" x="0px" y="0px"
	 viewBox="0 0 491.8 474.4" style="enable-background:new 0 0 491.8 474.4;" xml:space="preserve">
<style type="text/css">
	.st0{opacity:0.5;fill:none;stroke:#263768;stroke-width:5;stroke-linecap:round;stroke-linejoin:round;}
	.st1{opacity:0.5;fill:none;stroke:#263768;stroke-width:4.88;stroke-linecap:round;stroke-linejoin:round;}
	.st2{opacity:0.5;fill:none;stroke:#263768;stroke-width:4.79;stroke-linecap:round;stroke-linejoin:round;}
	.st3{opacity:0.5;fill:none;stroke:#263768;stroke-width:4.94;stroke-linecap:round;stroke-linejoin:round;}
	.st4{opacity:0.5;fill:none;stroke:#263768;stroke-width:5.64;stroke-linecap:round;stroke-linejoin:round;}
	.st5{opacity:0.5;fill:none;stroke:#263768;stroke-width:5.84;stroke-linecap:round;stroke-linejoin:round;}
</style>
<path class="st0" d="M469.5,265.7c-77.7-48.4-122.2-46.3-148.7-34.6c-23.5,10.4-42.5,32.6-86.5,43.9c-17,4.3-34.6,6.3-52.1,5.8"/>
<path class="st0" d="M253.3,289c-16.2,6.5-33.5,9.9-51,10.1c-19.7,0.1-25.8-4.3-28.6-6.8c-8.5-7.7-12.6-22.4-7.3-29.5
	c5.5-7.3,17.9-2.5,38.5-3.1c23.4-0.7,40.4-7.9,56.2-14.7c35.6-15.2,42.4-35.9,61.2-47c22.6-13.3,65.1-14.4,153,44.1"/>
<path class="st0" d="M265.5,284.3c8.1-2.5,15.6-6.5,22.3-11.8"/>
<path class="st0" d="M303.2,262.5c10.4-8.2,22.4-14.1,35.2-17.5c61-15.8,115,37.7,119.8,42.6"/>
<path class="st0" d="M288.6,172.9c-1.2-2-16.7-38.7-53.8-39.1c-37.9-0.4-58.1,32.2-61.4,37.8c-4.6,7.8-17.1,29.1-7.8,46.5
	c11.1,20.7,43.8,18.6,47.9,18.3c19.3-1.2,53.5-12,55.8-37.5c2-22-20.5-47.5-43.1-44.8c-18.9,2.2-36.6,23.9-31.6,38.8
	c3.2,9.7,17,19,28.5,14.5c10.4-4,12.9-16.7,13.1-17.8"/>
<path class="st0" d="M286.1,211.1c7-5.7,9.9-15,7.2-23.6"/>
<path class="st0" d="M213.9,187.8c-1.7-5.1,1-10.6,6.1-12.3c2.4-0.8,5.1-0.6,7.4,0.5"/>
<path class="st0" d="M481.7,221.8c-13.2-9.2-39.4-22.9-50.5-28.9c-34.9-18.6-60.7-32.7-75.8-31.9c-18.4,0.9-34.7,8.2-43.5,15.5"/>
<path class="st0" d="M311.7,176.6c-2.9-8.6-6.6-17-11.1-24.8c-7.6-13.2-20.9-36.3-47.2-46.4c-6.8-2.6-19.9-6.4-38-3.9"/>
<path class="st0" d="M318.3,152.3c10.8-8.7,24.5-13.1,38.4-12.3"/>
<path class="st0" d="M313.3,139.6c-5.9-16.6-16.8-30.9-31.2-41c-28.1-19.5-58.3-14.5-64.4-13.3"/>
<path class="st0" d="M158.6,241.6c-4.3,0.6-20.3,3.3-26.5,15.3c-8.6,16.7,8.3,38.7,18.1,48c22.9,21.7,55.1,20.1,68.9,19.4
	c32.6-1.6,57.6-16.2,76.9-27.5c9.6-5.6,18.8-11.9,27.5-18.7"/>
<path class="st0" d="M342.5,269.3c4.4-3,9.4-5,14.6-6.1c20.8-4.2,37.6,10.2,40.3,12.6"/>
<path class="st0" d="M447.1,315.9c-8.2-13-19.7-23.6-33.4-30.6"/>
<path class="st0" d="M145.5,225.2c-11.3-14.4-12.6-26.9-12.7-32.7c-0.4-29,27.5-49,41.5-58.9c12.2-8.7,25.8-15.2,40.2-19.3"/>
<path class="st0" d="M122.9,235.7c-5.8-5.9-14.8-16.8-17.7-32.4C99.7,174,119.9,150,130.8,137c22.3-26.5,50.5-36.9,65.1-41.1
	c0.9-7.3,1.2-14.6,0.7-21.9c-0.8-13.6-4-27-9.4-39.6"/>
<path class="st0" d="M431.5,337.6c-9.7-10.1-20.8-18.7-33-25.6c-15.3-8.6-28-15.7-44.4-14.3c-22,2-36.5,18.3-41.3,24.2"/>
<path class="st0" d="M295.5,335.7c-16.1,8.8-33.8,14.4-52.1,16.4c-40.6,4.3-71-10.8-82.5-16.8c-14.4-7.4-29.6-15.3-41-33.2
	c-7.9-12.6-12.3-27.1-12.8-41.9"/>
<path class="st0" d="M419.2,352.4c-3.8-5-17-21-40.1-26c-22.6-4.9-40.5,3.8-48,7.5c-18.5,9.2-23.2,20.4-34.6,30.3
	c-14.1,12.2-39.2,23.3-87.6,16.9"/>
<path class="st0" d="M195.7,378c-17.4-5.6-33.7-14.3-47.9-25.8"/>
<path class="st0" d="M133.5,343.4c-9.3-8.7-17.6-18.2-25-28.6c-7.8-11-15-21.3-18.8-36.7c-1.4-5.4-2.2-10.9-2.5-16.5"/>
<path class="st0" d="M327.7,128.1c9.3-4.2,19.3-6.6,29.5-7.3c17.1-1,29.3,3.8,48.8,11.7c27,11,47.6,24.5,70.4,39.4
	c5.5,3.6,10,6.6,12.9,8.6"/>
<path class="st1" d="M480.4,197.7c-16.9-11.3-43-28.5-66.2-39.5c-15.3-7.3-27.2-12.3-42.9-14.5"/>
<path class="st2" d="M174.1,39.9c2.6,8,4.8,16.1,6.4,24.4c1.3,6.6,2.2,12.9,2.8,18.8"/>
<path class="st2" d="M216.6,72.5c-1.9-15.5-6.2-30.6-12.6-44.8"/>
<path class="st0" d="M99.4,246.9c-5.8-7.9-14.7-22.5-17.1-42.2c-4.8-39.6,20.2-69.4,29.4-80.3c14.1-16.6,31.9-29.5,52.1-37.7"/>
<path class="st0" d="M232,64.3c8.9-1.4,18-1.3,26.9,0.4c13.1,2.5,25.4,8.2,35.8,16.6"/>
<path class="st0" d="M322,117.1c-1.7-4.9-4-9.6-6.9-13.9c-2.8-4.2-7.8-10.4-11.9-13.5"/>
<path class="st0" d="M333.2,108.6"/>
<path class="st0" d="M117.7,465c-58.4-18.1-101.7-67.6-112-127.9"/>
<path class="st0" d="M4.2,326.4c-1.1-4.3-1.7-12.9-1.7-17.1c0-10.6,0.2-13.5,1.3-19.8"/>
<path class="st3" d="M113.5,355.5c-12-10.4-40.8-38.4-51.8-85.1c-15.8-67.3,13.8-126.3,20.4-136.7"/>
<path class="st0" d="M91.4,122.4c18.8-23.4,43.4-41.3,71.5-52"/>
<path class="st0" d="M127.9,74.4l27.8-13.8c-0.3-2.9-0.6-5.7-0.9-8.6"/>
<path class="st0" d="M231.4,51.5c-2.1-10.9-6.2-21.2-12.2-30.6"/>
<path class="st0" d="M447.3,65.8l-7.8-1.2c-4.6-0.7-8.3-4.1-9.5-8.6l-3.7-14.2"/>
<path class="st0" d="M456.1,83.4c-10.3-0.1-20.2-3.5-28.4-9.7C409.3,59.6,409,37.1,409,34.2"/>
<path class="st0" d="M400.5,56.1c-1.5-1.4-4.5-6.9-6.3-15.3c-1-4.7,0.8-10,1.6-12.1"/>
<path class="st0" d="M468.6,97.7c-7.9,1.6-16.2,1.6-24.1-0.2C421,92.2,408.8,73.3,406,68.7"/>
<path class="st0" d="M483.2,155.3c-36.7-32.5-82.1-53.7-130.6-61.1"/>
<path class="st0" d="M336,87.5c-22.7-28.1-55.1-46.7-90.8-52.1"/>
<path class="st0" d="M206,471.9c-18-3-42-4.6-70.9-14.3c-24.3-8.1-57.9-25.1-71.1-40.1"/>
<path class="st0" d="M400.9,371c-7.5-7.8-19.3-17.3-33.5-17.1c-14.9,0.2-23.7,11-43.5,24.8c-15.5,10.8-32.3,19.6-49.9,26.5"/>
<path class="st0" d="M256.7,408.3c-12.2,1.5-24.6,1.6-36.9,0.4c-19.8-2.1-39.1-7.7-57-16.5c-10.3-5.1-20.2-11.2-29.3-18.2"/>
<path class="st0" d="M480.7,129.7c-20.2-11.3-41.1-21.4-62.5-30.3c-14.4-6-28.3-11.1-41.5-15.5"/>
<path class="st0" d="M353,78c-7.1-9.7-13.1-16.5-26.5-28.7c-16.2-15-36-25.6-57.5-30.7c-9.2-2.2-21.2-5.1-26.6-4.6"/>
<path class="st0" d="M385.7,387c-1.7-1.6-11.3-10.4-25.6-9.5c-7.2,0.5-14.1,3.3-19.6,7.9"/>
<path class="st4" d="M370.4,74.7c-5.2-9.5-11.3-18.3-18.3-26.5c-21.2-24.7-46.1-38-64.3-45.3"/>
<path class="st4" d="M385.5,68.8c-11.2-23.1-26.4-44-44.8-61.8"/>
<path class="st4" d="M153.2,419.8c-21.5-11.4-41.4-25.9-58.8-42.9c-16.9-16.4-42.9-41.8-56.8-84.5C21.3,241.5,28,186,56.1,140.6"/>
<path class="st4" d="M67.8,125.1c3.4-6,7.4-11.6,11.8-16.9C89.9,95.7,102.7,85.5,117,78"/>
<path class="st4" d="M169.8,426.6c13.1,4.6,26.7,7.4,40.6,8.3c52.1,3.4,91.6-21.5,107-32.6"/>
<path class="st4" d="M236.5,467.9c-1.3-2.8-3-5.3-5.2-7.4c-7.8-7.7-19.1-7.8-22.9-7.9c-23.2-0.7-52.2-8.9-62.9-12.7
	c-22.7-8-42.8-21.3-54.6-32c-12.9-11.8-17.5-18.1-23.7-27.1"/>
<path class="st4" d="M367.3,407.8c-2.3-2.7-5.4-4.6-8.9-5.5c-6.7-1.7-13.1,1.5-22.5,7.7c-13.5,9-14.9,12.1-23.9,18.3
	c-19,12.8-41.4,19.4-64.3,19.1"/>
<path class="st4" d="M252.3,464.6c8.5-1.6,16.9-3.6,25.2-6.1c26.5-8.1,51.3-20.9,73.3-37.7"/>
<path class="st5" d="M54,403.3c-10.2-11.4-18.8-24.1-25.8-37.7"/>
<path class="st4" d="M50.8,360.6c-8.1-9.5-28-41.5-35-70.3c-5-20.7-5.3-42.3-0.8-63.1"/>
</svg>
