<?xml version="1.0" encoding="utf-8"?>
<!-- Generator: Adobe Illustrator 25.4.1, SVG Export Plug-In . SVG Version: 6.00 Build 0)  -->
<svg version="1.1" id="Layer_1" xmlns="http://www.w3.org/2000/svg" xmlns:xlink="http://www.w3.org/1999/xlink" x="0px" y="0px"
	 viewBox="0 0 481.4 479.2" style="enable-background:new 0 0 481.4 479.2;" xml:space="preserve">
<style type="text/css">
	.st0{opacity:0.5;fill:none;stroke:#263768;stroke-width:5;stroke-linecap:round;stroke-linejoin:round;}
	.st1{opacity:0.5;fill:none;stroke:#263768;stroke-width:4.88;stroke-linecap:round;stroke-linejoin:round;}
	.st2{opacity:0.5;fill:none;stroke:#263768;stroke-width:4.79;stroke-linecap:round;stroke-linejoin:round;}
	.st3{opacity:0.5;fill:none;stroke:#263768;stroke-width:4.94;stroke-linecap:round;stroke-linejoin:round;}
	.st4{opacity:0.5;fill:none;stroke:#263768;stroke-width:5.64;stroke-linecap:round;stroke-linejoin:round;}
	.st5{opacity:0.5;fill:none;stroke:#263768;stroke-width:5.84;stroke-linecap:round;stroke-linejoin:round;}
</style>
<path class="st0" d="M15.8,228C97,270.4,141.1,265,166.6,251.3c22.7-12.1,39.9-35.8,82.9-50.3c16.6-5.6,34-8.9,51.5-9.7"/>
<path class="st0" d="M229.7,188.5c15.7-7.7,32.7-12.4,50.1-13.9c19.6-1.6,26.1,2.3,29,4.7c9.1,7.1,14.3,21.4,9.5,28.9
	c-5,7.8-17.7,3.9-38.1,6c-23.3,2.5-39.7,11-55,18.9c-34.4,17.8-39.5,39-57.5,51.5c-21.5,15-63.8,19.3-155.8-32.4"/>
<path class="st0" d="M217.8,194c-7.9,3.1-15.1,7.7-21.3,13.4"/>
<path class="st0" d="M181.9,218.6c-9.7,8.9-21.2,15.8-33.7,20.1c-59.7,20.3-117.5-28.9-122.7-33.5"/>
<path class="st0" d="M203.2,306.8c1.3,1.9,19.6,37.3,56.6,34.9c37.8-2.5,55.5-36.5,58.4-42.3c4-8.1,14.9-30.3,4.2-47
	c-12.7-19.8-45-15.2-49.1-14.6c-19.1,2.7-52.4,16.1-52.8,41.6c-0.3,22,24,45.8,46.4,41.4c18.7-3.6,34.7-26.6,28.6-41.1
	c-4-9.4-18.4-17.7-29.5-12.3c-10,4.8-11.6,17.6-11.7,18.8"/>
<path class="st0" d="M202.9,268.6c-6.5,6.2-8.7,15.7-5.4,24.1"/>
<path class="st0" d="M276.6,286.3c2.1,5-0.2,10.7-5.2,12.8c-2.4,1-5,1-7.4,0.1"/>
<path class="st0" d="M7,272.7c13.9,8.2,41,19.9,52.6,24.9c36.2,15.9,63,28,78,26.1c18.2-2.3,34-10.8,42.2-18.8"/>
<path class="st0" d="M179.9,304.9c3.5,8.4,7.9,16.4,13,23.9c8.6,12.6,23.6,34.6,50.6,42.6c7,2.1,20.4,4.9,38.2,1"/>
<path class="st0" d="M175.2,329.7c-10.1,9.5-23.4,15-37.3,15.2"/>
<path class="st0" d="M181.1,342c7.1,16.1,19.1,29.5,34.2,38.5c29.5,17.3,59.2,10,65.2,8.4"/>
<path class="st0" d="M327.6,228.5c4.2-0.9,20-4.8,25.3-17.2c7.4-17.3-11.2-38-21.7-46.5c-24.5-19.9-56.5-15.9-70.1-14.2
	c-32.4,4.1-56.2,20.5-74.6,33.2c-9.1,6.3-17.8,13.2-26,20.8"/>
<path class="st0" d="M142.2,214.8c-4.2,3.3-9,5.8-14.1,7.2c-20.4,5.7-38.3-7.4-41.1-9.5"/>
<path class="st0" d="M34.4,176.2c9.1,12.4,21.4,22,35.6,27.9"/>
<path class="st0" d="M341.9,243.9c12.4,13.5,14.6,25.8,15.2,31.7c2.5,28.9-23.8,50.9-36.9,61.9c-11.5,9.6-24.6,17.1-38.7,22.3"/>
<path class="st0" d="M363.7,231.7c6.2,5.4,16,15.6,20.1,30.9c7.7,28.8-10.7,54.3-20.5,68.1c-20.3,28.1-47.5,40.6-61.8,45.9
	c-0.4,7.3-0.1,14.7,0.9,21.9c1.9,13.6,6,26.7,12.4,38.8"/>
<path class="st0" d="M48.3,153.5c10.4,9.3,22.2,17.1,34.9,23c15.9,7.4,29.1,13.6,45.4,10.9c21.8-3.6,35-21,39.3-27.3"/>
<path class="st0" d="M184,145.1c15.4-10,32.6-16.9,50.7-20.3c40.2-7.4,71.6,5.4,83.5,10.5c14.9,6.3,30.7,13,43.4,30
	c8.8,12,14.4,26.1,16,40.9"/>
<path class="st0" d="M59.5,137.8c4.2,4.7,18.5,19.7,41.9,22.9c22.9,3.2,40.2-6.8,47.3-11.1c17.7-10.6,21.6-22.1,32.2-32.8
	c13.1-13.3,37.3-26.2,86-23.5"/>
<path class="st0" d="M280.4,95.3c17.8,4.3,34.7,11.8,49.7,22.1"/>
<path class="st0" d="M345,125.1c9.9,7.9,19,16.8,27.1,26.6c8.6,10.4,16.5,20.1,21.5,35.1c1.8,5.3,3,10.7,3.7,16.2"/>
<path class="st0" d="M167.6,354.5c-9,4.9-18.8,8.1-28.9,9.5c-17,2.3-29.5-1.6-49.6-8c-27.8-8.9-49.3-20.8-73.2-33.9
	c-5.7-3.2-10.4-5.9-13.5-7.7"/>
<path class="st1" d="M10.1,296.7c17.7,10,45,25.2,69,34.4c15.9,6.1,28,10.2,43.9,11.2"/>
<path class="st2" d="M327.5,430.8c-3.2-7.8-6-15.7-8.2-23.8c-1.8-6.5-3.2-12.7-4.2-18.5"/>
<path class="st2" d="M282.7,401.5c3.1,15.3,8.5,30,16,43.7"/>
<path class="st0" d="M386.2,218.8c6.3,7.5,16.3,21.3,20.2,40.8c7.8,39.1-15,70.7-23.2,82.3c-12.8,17.6-29.6,31.8-49.1,41.5"/>
<path class="st0" d="M267.9,410.8c-8.8,2.1-17.9,2.6-26.9,1.7c-13.2-1.5-25.9-6.2-36.9-13.8"/>
<path class="st0" d="M174.1,365.1c2.1,4.8,4.7,9.3,7.9,13.4c3.1,4,8.6,9.8,12.9,12.6"/>
<path class="st0" d="M163.6,374.4"/>
<path class="st0" d="M351.6,2.7c59.6,13.6,106.6,59.6,121.4,119"/>
<path class="st0" d="M475.2,132.3c1.5,4.2,2.7,12.8,3,16.9c0.8,10.6,0.8,13.4,0.2,19.8"/>
<path class="st3" d="M364,111.5c12.8,9.5,43.6,35.2,58.1,80.9c20.9,65.9-4.2,127-10,137.9"/>
<path class="st0" d="M403.7,342.3c-17,24.7-40.2,44.5-67.3,57.2"/>
<path class="st0" d="M371,392.9l-26.7,15.8l1.5,8.5"/>
<path class="st0" d="M269.5,423.5c2.9,10.7,7.8,20.7,14.4,29.6"/>
<path class="st0" d="M53.1,425.7l7.9,0.6c4.7,0.4,8.7,3.5,10.2,7.9l4.8,13.9"/>
<path class="st0" d="M43,408.8c10.2-0.7,20.4,2,29.1,7.5c19.4,12.7,21.4,35.1,21.6,38"/>
<path class="st0" d="M100.5,431.8c1.6,1.3,5,6.5,7.4,14.8c1.3,4.6,0,10-0.7,12.2"/>
<path class="st0" d="M29.4,395.5c7.8-2.2,16-2.8,24-1.7c23.9,3.5,37.5,21.5,40.6,25.8"/>
<path class="st0" d="M10.5,339.1c39.1,29.7,85.9,47.4,134.8,51"/>
<path class="st0" d="M162.4,395.6c24.7,26.3,58.5,42.4,94.5,45"/>
<path class="st0" d="M263,2.5c18.2,1.6,42.2,1.4,71.8,8.9c24.9,6.2,59.6,20.6,73.9,34.6"/>
<path class="st0" d="M76.2,117.8c8.1,7.2,20.6,15.8,34.8,14.5c14.9-1.4,22.8-12.7,41.5-28c14.7-11.9,30.7-22,47.8-30.2"/>
<path class="st0" d="M217.2,69.8c12.1-2.4,24.4-3.5,36.7-3.2c19.9,0.6,39.6,4.7,58.1,12.2c10.7,4.3,20.9,9.7,30.6,16"/>
<path class="st0" d="M15,364.5c21,9.7,42.6,18.3,64.6,25.5c14.8,4.9,29,8.9,42.5,12.3"/>
<path class="st0" d="M146.2,406.4c7.9,9.1,14.3,15.4,28.5,26.6c17.3,13.8,37.8,22.8,59.7,26.3c9.3,1.5,21.6,3.5,26.9,2.6"/>
<path class="st0" d="M90.2,100.7c1.8,1.5,12.1,9.5,26.2,7.5c7.2-1,13.8-4.3,19-9.4"/>
<path class="st4" d="M129.1,411c5.9,9,12.7,17.4,20.3,25.1c23,23.1,48.9,34.5,67.5,40.3"/>
<path class="st4" d="M114.5,418c3.9,6.8,8.3,13.4,12.9,19.7c10.5,14.3,22.8,27.2,36.4,38.5"/>
<path class="st4" d="M319.5,50.4c22.3,9.8,43.2,22.7,61.9,38.3c18.1,15.1,46,38.4,63,80c20.2,49.5,17.6,105.4-7,152.8"/>
<path class="st4" d="M427,337.9c-3,6.2-6.4,12.2-10.4,17.8c-9.4,13.2-21.3,24.3-35,32.9"/>
<path class="st4" d="M302.5,44.9c-13.4-3.6-27.2-5.4-41.1-5.3c-52.2,0.6-89.7,28.4-104.3,40.6"/>
<path class="st4" d="M232.9,8.8c1.5,2.7,3.4,5,5.7,7c8.4,7.1,19.6,6.3,23.4,6.1c23.2-1.1,52.7,4.9,63.7,7.9
	c23.2,6.2,44.3,18,56.8,27.7c13.8,10.7,18.8,16.7,25.7,25.2"/>
<path class="st4" d="M107,78.6c2.5,2.5,5.8,4.2,9.2,4.9c6.8,1.2,12.9-2.5,21.8-9.4c12.8-10,14-13.2,22.4-20
	c18-14.2,39.9-22.5,62.7-23.9"/>
<path class="st4" d="M217.4,13.2c-8.4,2.2-16.6,4.9-24.7,8c-25.8,10.1-49.6,24.7-70.3,43.1"/>
<path class="st5" d="M419.7,59.4C430.7,70,440.3,82,448.3,95"/>
<path class="st4" d="M426.1,101.7c8.8,8.9,31.1,39.3,40.3,67.5c6.6,20.3,8.5,41.8,5.6,62.9"/>
</svg>
