<?xml version="1.0" encoding="utf-8"?>
<!-- Generator: Adobe Illustrator 25.4.1, SVG Export Plug-In . SVG Version: 6.00 Build 0)  -->
<svg version="1.1" id="Layer_1" xmlns="http://www.w3.org/2000/svg" xmlns:xlink="http://www.w3.org/1999/xlink" x="0px" y="0px"
	 viewBox="0 0 449.5 513.4" style="enable-background:new 0 0 449.5 513.4;" xml:space="preserve">
<style type="text/css">
	.st0{opacity:0.75;fill:none;stroke:#263768;stroke-width:5;stroke-linecap:round;stroke-linejoin:round;}
	.st1{opacity:0.75;fill:none;stroke:#263768;stroke-width:4.88;stroke-linecap:round;stroke-linejoin:round;}
	.st2{opacity:0.75;fill:none;stroke:#263768;stroke-width:4.79;stroke-linecap:round;stroke-linejoin:round;}
	.st3{opacity:0.75;fill:none;stroke:#263768;stroke-width:4.94;stroke-linecap:round;stroke-linejoin:round;}
	.st4{opacity:0.75;fill:none;stroke:#263768;stroke-width:5.64;stroke-linecap:round;stroke-linejoin:round;}
	.st5{opacity:0.75;fill:none;stroke:#263768;stroke-width:5.84;stroke-linecap:round;stroke-linejoin:round;}
</style>
<path class="st0" d="M151.3,471.2c63.8-65.7,71.2-109.6,65.4-137.9c-5.2-25.2-22.9-48.4-24.5-93.9c-0.6-17.6,1.2-35.1,5.4-52.1"/>
<path class="st0" d="M174.4,254.9c-2.9-17.2-2.6-34.9,1-52c4.1-19.3,9.7-24.3,12.8-26.5c9.4-6.7,24.5-7.6,30.4-0.8
	c6,7-1.3,18.1-5.1,38.3c-4.3,23-0.8,41.1,2.4,58.1c7.3,38,26.1,49,32.9,69.8c8.2,24.9,0.2,66.7-75.6,140.1"/>
<path class="st0" d="M176.3,267.8c0.7,8.4,3,16.7,6.8,24.2"/>
<path class="st0" d="M189.7,309.3c5.8,11.9,9.1,24.9,9.7,38.1c2.5,63-61.3,104.3-67.1,108"/>
<path class="st0" d="M280.3,314c2.2-0.7,41.3-8.1,49.6-44.3c8.4-37-19.2-63.6-23.9-68c-6.6-6.1-24.8-22.9-43.8-17.5
	c-22.5,6.5-27.4,38.8-28,42.9c-2.9,19.1,0.4,54.8,24.8,62.5c21,6.6,50.7-10,52.9-32.7c1.8-18.9-15.6-40.9-31.2-39.1
	c-10.1,1.1-22.2,12.5-20.2,24.8c1.7,11,13.6,16.1,14.6,16.5"/>
<path class="st0" d="M243.6,303.5c4.1,8,12.6,12.8,21.5,12.1"/>
<path class="st0" d="M281.6,237.9c5.3-0.6,10.2,3.2,10.8,8.6c0.3,2.6-0.4,5.1-2.1,7.2"/>
<path class="st0" d="M191.6,492.3c11.9-11,30.7-33.6,38.9-43.3c25.6-30.2,44.8-52.4,47.3-67.3c3-18.1-0.6-35.7-6-45.9"/>
<path class="st0" d="M271.8,335.8c9-1,18-2.8,26.6-5.6c14.5-4.6,39.9-12.8,55.3-36.3c4-6.1,10.5-18.1,11.9-36.3"/>
<path class="st0" d="M294.2,347.4c6.2,12.4,7.6,26.7,3.9,40.1"/>
<path class="st0" d="M307.7,345.2c17.4-2.3,33.7-9.9,46.6-21.8c25-23.3,26.5-53.9,26.7-60.1"/>
<path class="st0" d="M240.8,172.4c0.3-4.3,1.1-20.6-9.3-29.2c-14.5-12-39.6,0-50.7,7.5c-26.1,17.7-31.4,49.6-33.6,63.2
	c-5.3,32.2,3.6,59.7,10.6,81c3.4,10.5,7.6,20.8,12.5,30.8"/>
<path class="st0" d="M174.7,346.2c2,4.9,3,10.2,2.9,15.5c-0.4,21.2-18,34.6-20.8,36.7"/>
<path class="st0" d="M106.9,438.6c14.5-5.2,27.2-14.3,37-26.2"/>
<path class="st0" d="M259.6,163.1c16.5-8,28.9-6.7,34.7-5.5c28.4,5.8,42,37.3,48.8,53c5.9,13.8,9.4,28.5,10.3,43.4"/>
<path class="st0" d="M254.1,138.7c7-4.4,19.6-10.9,35.4-10.4c29.8,0.9,49,25.7,59.4,39.1c21.2,27.5,25.4,57.1,26.3,72.3
	c19.9,7.1,41.3,8.6,62,4.6"/>
<path class="st0" d="M89.1,418.7c11.9-7.3,22.7-16.4,32-26.9c11.6-13.1,21.3-24,23.4-40.4c2.7-22-10.1-39.5-14.9-45.5"/>
<path class="st0" d="M119.8,286.3c-5.2-17.6-6.9-36.1-5-54.4c4.4-40.6,25.6-67.1,33.9-77.1c10.3-12.5,21.2-25.7,41.1-33.1
	c14-5,29.1-6.3,43.7-3.6"/>
<path class="st0" d="M77.3,403.5c5.7-2.7,24.2-12.1,34-33.7c9.6-21,4.9-40.4,2.9-48.5c-5.1-20-15-27-22.3-40.2
	c-9-16.4-14.5-43.2,2.1-89.2"/>
<path class="st0" d="M99.6,179.7c9.2-15.8,21.2-29.9,35.4-41.3"/>
<path class="st0" d="M146.6,126.3c10.4-7.2,21.6-13.4,33.2-18.4c12.4-5.3,24-10.1,39.8-10.6c5.6-0.2,11.1,0.2,16.6,1.1"/>
<path class="st0" d="M315.9,361.7c2.1,10,2.4,20.3,0.8,30.4c-2.7,17-9.9,27.8-21.8,45.2c-16.5,24.1-34,41.3-53.4,60.4
	c-4.7,4.6-8.6,8.3-11.2,10.8"/>
<path class="st1" d="M215.4,496.2c14.6-14.1,37-36,52.7-56.3c10.4-13.5,17.8-23.9,23.2-38.9"/>
<path class="st2" d="M434.6,230.3c-8.4,0.9-16.8,1.2-25.2,1.1c-6.7-0.1-13.1-0.6-18.9-1.2"/>
<path class="st2" d="M393.7,264.9c15.5,1.4,31.2,0.4,46.4-2.9"/>
<path class="st0" d="M248.1,113.5c14.1-6.4,29.5-9,44.9-7.7c39.7,3.7,63.5,34.5,72.2,45.8c13.2,17.3,22,37.5,25.8,58.9"/>
<path class="st0" d="M398.4,281.7c-0.5,9-2.6,17.9-6.1,26.2c-5.2,12.3-13.4,23.1-23.7,31.4"/>
<path class="st0" d="M327.8,358.6c5.2-0.6,10.2-1.9,15.1-3.8c4.7-1.8,11.9-5.4,15.8-8.7"/>
<path class="st0" d="M333.7,371.3"/>
<path class="st0" d="M31.2,85C61.3,31.7,118.8-0.1,179.9,2.7"/>
<path class="st0" d="M190.7,3.5c4.5-0.2,13,1.1,17.1,2c10.4,2.2,13.1,3,19,5.5"/>
<path class="st3" d="M139,104.2c12.7-9.5,46.1-31.8,94.1-32.6c69.1-1.2,120.5,40.2,129.2,48.9"/>
<path class="st0" d="M371.6,132c18.9,23.3,31.2,51.2,35.6,80.9"/>
<path class="st0" d="M410.6,177.8l7.5,30.1l8.5,1"/>
<path class="st0" d="M411.1,283.9c11.1,0.3,22.1-1.5,32.4-5.4"/>
<path class="st0" d="M351.3,491.9c0.9-2.5,1.9-4.9,2.9-7.4c1.7-4.3,5.8-7.3,10.5-7.5l14.7-0.6"/>
<path class="st0" d="M332.3,496.7c2.3-10,7.7-19,15.5-25.7c17.7-15,39.8-10.5,42.6-9.8"/>
<path class="st0" d="M370.8,448.2c1.7-1.2,7.7-3,16.3-2.9c4.8,0,9.6,2.9,11.5,4.2"/>
<path class="st0" d="M315.7,505.9c0.1-8.1,1.9-16.1,5.3-23.5c10.2-21.8,31.2-29.8,36.3-31.5"/>
<path class="st0" d="M256.2,507.9c39.6-29,69.9-68.8,87.4-114.7"/>
<path class="st0" d="M353.7,378.5c32.3-16.2,57.3-43.9,70.1-77.7"/>
<path class="st0" d="M5.7,169.9c6.7-17,13.4-40,29-66.2c13.1-22,36.8-51.2,54.3-60.9"/>
<path class="st0" d="M62.9,381.8c9.3-5.7,21-15.2,23.8-29.2c2.9-14.6-5.7-25.5-15-47.7c-7.2-17.5-12.3-35.7-15.3-54.4"/>
<path class="st0" d="M57.1,233c1.1-12.3,3.6-24.4,7.4-36.1c6.3-19,15.8-36.6,28.2-52.3c7.2-9,15.2-17.3,24-24.7"/>
<path class="st0" d="M281.8,510.9c15.4-17.4,29.7-35.6,42.9-54.6c8.9-12.8,16.9-25.3,23.9-37.3"/>
<path class="st0" d="M359.4,397.1c11-4.9,18.9-9.3,33.6-19.8c18.1-12.6,32.7-29.7,42.2-49.7c4.1-8.5,9.5-19.7,10.1-25"/>
<path class="st0" d="M50.5,363.5c1.9-1.3,12.5-8.9,14.7-23c1.1-7.2-0.2-14.5-3.6-20.9"/>
<path class="st4" d="M359,414.8c10.3-3.1,20.3-7.2,29.8-12.3c28.7-15.5,47-37,57.9-53.2"/>
<path class="st4" d="M361.5,430.8c7.6-1.8,15.2-4.1,22.5-6.8c16.7-6,32.6-14.1,47.3-23.9"/>
<path class="st4" d="M67.8,129.3c15.7-18.6,34.1-34.9,54.4-48.4c19.6-13,50-33.1,94.6-37.6c53.2-5.2,106,13.2,144.5,50.3"/>
<path class="st4" d="M373.9,108.4c5.1,4.6,9.8,9.7,14.1,15.1c9.9,12.8,17.2,27.4,21.5,43"/>
<path class="st4" d="M57.6,144.1c-7.3,11.8-12.9,24.5-16.8,37.9C26.5,232.1,42.5,276,50,293.5"/>
<path class="st4" d="M3.2,200.5c3-0.6,5.8-1.8,8.4-3.5c9.1-6,11.6-17,12.6-20.7c5.6-22.5,19.8-49.1,25.7-58.8
	C62.4,97,79.7,80.2,92.6,71c14.2-10.2,21.4-13.3,31.5-17.4"/>
<path class="st4" d="M34.1,341.1c3.1-1.7,5.6-4.3,7.3-7.5c3.1-6.2,1.3-13.1-2.8-23.6c-5.9-15.1-8.6-17.1-12.8-27.2
	c-8.4-21.3-10.2-44.6-5-66.9"/>
<path class="st4" d="M2.9,216.7c-0.3,8.6-0.1,17.3,0.6,25.9c2.3,27.6,9.5,54.6,21.3,79.7"/>
<path class="st5" d="M105,35.9c13.3-7.5,27.6-13.3,42.3-17.2"/>
<path class="st4" d="M147.3,41.8c11-5.9,46.5-18.6,76.2-19.3c21.3-0.5,42.4,3.8,61.9,12.6"/>
</svg>
