<svg width="28" height="26" viewBox="0 0 28 26" fill="none" xmlns="http://www.w3.org/2000/svg">
<path d="M26.7295 12.7949L14.6621 0.736304C14.5752 0.649246 14.472 0.580177 14.3584 0.533052C14.2448 0.485927 14.123 0.46167 14 0.46167C13.877 0.46167 13.7552 0.485927 13.6416 0.533052C13.528 0.580177 13.4248 0.649246 13.3379 0.736304L1.27051 12.7949C0.918945 13.1465 0.719727 13.624 0.719727 14.122C0.719727 15.1562 1.56055 15.997 2.59473 15.997H3.86621V24.6015C3.86621 25.1201 4.28516 25.539 4.80371 25.539H12.125V18.9765H15.4062V25.539H23.1963C23.7148 25.539 24.1338 25.1201 24.1338 24.6015V15.997H25.4053C25.9033 15.997 26.3809 15.8008 26.7324 15.4463C27.4619 14.7138 27.4619 13.5273 26.7295 12.7949V12.7949Z" fill="#263768"/>
</svg>
