<svg id="Layer_1" data-name="Layer 1" xmlns="http://www.w3.org/2000/svg" viewBox="0 0 1648.9 328.27"><defs><style>.cls-1{fill:#6b6c6c;}.cls-2{fill:#22386c;}.cls-3{fill:#3059a7;}.cls-4{fill:#1f4283;}</style></defs><path class="cls-1" d="M429.39,98.59a40.88,40.88,0,0,1,20.6,5.34,42.25,42.25,0,0,1,15.07,14.42,37.68,37.68,0,0,1,5.72,20.5,38.41,38.41,0,0,1-6.09,21.26,45,45,0,0,1-16.11,15.08,44.26,44.26,0,0,1-22,5.61h-47.2v48.88H359.16V98.59Zm-4.12,62.74a24.35,24.35,0,0,0,12.08-3.09,24.66,24.66,0,0,0,8.8-8.15,20.28,20.28,0,0,0,3.28-11.24,17.9,17.9,0,0,0-3.28-10.48,23.56,23.56,0,0,0-8.8-7.49,26.2,26.2,0,0,0-12.08-2.81H379.38v43.26Z"/><path class="cls-1" d="M661.61,229.68l-14.42-31.27h-71l-14.42,31.27H540.62L600.93,98.59h22.85L683.7,229.68Zm-60.12-86.33L585.2,178.93h53.18L621.53,142.6q-2.62-5.81-5.06-11.42t-4.68-12q-2.62,6.56-5.15,12.45T601.49,143.35Z"/><path class="cls-1" d="M763.1,189.42a82.58,82.58,0,0,0,21.35,17.7q11.24,6.27,27.35,6.27a62.67,62.67,0,0,0,16.76-2.25A34.12,34.12,0,0,0,842,204.4,14.38,14.38,0,0,0,847.19,193q0-9.36-10.39-13.11t-29.31-6.37a109,109,0,0,1-27-6.74q-11.43-4.68-17.7-12.46t-6.27-19.38a30.47,30.47,0,0,1,7.3-20.51q7.3-8.52,19.76-13.1a79.35,79.35,0,0,1,27.62-4.59q18.56,0,32.22,6a50.81,50.81,0,0,1,21.53,17l-13.67,14.61a52.61,52.61,0,0,0-16.95-14.05q-10.2-5.43-23.69-5.43-13.86,0-23.22,4.78t-9.36,13.39q0,6.93,4.58,10.95t12.74,6.28a145.81,145.81,0,0,0,19.2,3.74q10.49,1.5,20.13,3.75A75.59,75.59,0,0,1,852.06,164a33.62,33.62,0,0,1,12.17,10.11q4.5,6.18,4.5,15.55a36.19,36.19,0,0,1-7,22.19q-7,9.47-20,14.61t-30.62,5.15q-18.91,0-34.18-6A68,68,0,0,1,750,206.09Z"/><path class="cls-1" d="M960.3,189.42a82.42,82.42,0,0,0,21.35,17.7q11.24,6.27,27.34,6.27a62.8,62.8,0,0,0,16.77-2.25,34.12,34.12,0,0,0,13.39-6.74,14.38,14.38,0,0,0,5.24-11.42q0-9.36-10.39-13.11t-29.31-6.37a108.88,108.88,0,0,1-27-6.74q-11.43-4.68-17.7-12.46t-6.27-19.38a30.47,30.47,0,0,1,7.3-20.51q7.31-8.52,19.76-13.1a79.35,79.35,0,0,1,27.62-4.59q18.54,0,32.21,6a50.78,50.78,0,0,1,21.54,17l-13.67,14.61a52.82,52.82,0,0,0-17-14.05q-10.21-5.43-23.69-5.43-13.86,0-23.22,4.78t-9.37,13.39q0,6.93,4.59,10.95t12.74,6.28A145.63,145.63,0,0,0,1011.8,154q10.49,1.5,20.14,3.75a75.76,75.76,0,0,1,17.32,6.18,33.7,33.7,0,0,1,12.17,10.11q4.5,6.18,4.5,15.55a36.14,36.14,0,0,1-7,22.19q-7,9.47-20,14.61t-30.62,5.15a92.68,92.68,0,0,1-34.17-6,68,68,0,0,1-26.88-19.47Z"/><path class="cls-1" d="M1253.2,229.68l-14.42-31.27h-71l-14.42,31.27h-21.16l60.3-131.09h22.85l59.93,131.09Zm-60.12-86.33-16.29,35.58H1230l-16.86-36.33q-2.62-5.81-5.06-11.42t-4.68-12q-2.62,6.56-5.15,12.45T1193.08,143.35Z"/><path class="cls-1" d="M1404.23,97.09a91.53,91.53,0,0,1,24.72,3.19,85.37,85.37,0,0,1,20.13,8.24,50.77,50.77,0,0,1,13.58,10.86l-13.11,14.42a86.37,86.37,0,0,0-20.79-12.27,63,63,0,0,0-24.53-4.77,64.36,64.36,0,0,0-28.47,6.18,51.23,51.23,0,0,0-20.13,16.76,41,41,0,0,0-7.4,24.06,44.54,44.54,0,0,0,4.59,20.7,45,45,0,0,0,12.36,15,53.24,53.24,0,0,0,17.7,9.08,70.85,70.85,0,0,0,20.6,3,77.42,77.42,0,0,0,24.35-3.65q11-3.66,17.7-10t7-14.61h-48.69V163.39h70.22q.38,2.25.57,4.68t.18,4.68a59.08,59.08,0,0,1-3.18,19.48,47.67,47.67,0,0,1-8.61,15.54q-8.8,11.05-24.54,17.23t-36.33,6.18a91.63,91.63,0,0,1-28.93-4.49,72.25,72.25,0,0,1-24-13.21A61.54,61.54,0,0,1,1333,192.23a66.15,66.15,0,0,1-5.9-28.47,59.19,59.19,0,0,1,5.9-26.31,66.07,66.07,0,0,1,16.39-21.16,76.67,76.67,0,0,1,24.53-14.14A89,89,0,0,1,1404.23,97.09Z"/><path class="cls-1" d="M1547.4,229.68V98.59h101.5v19.48h-81.28v34.64h71v19.48h-71v38h81.28v19.47Z"/><path class="cls-2" d="M235.79,0H75.93A20.17,20.17,0,0,0,55.82,20.11V180a20.16,20.16,0,0,0,20.11,20.1H235.79A20.16,20.16,0,0,0,255.9,180V20.11A20.17,20.17,0,0,0,235.79,0ZM197.86,100.72a42.71,42.71,0,1,1-44.09-44.08A42.85,42.85,0,0,1,197.86,100.72Z"/><rect class="cls-3" y="207.75" width="120.53" height="120.53" rx="20.75"/><rect class="cls-4" y="98.83" width="48.21" height="101.24" rx="15.06"/></svg>