<svg id="Layer_1" data-name="Layer 1" xmlns="http://www.w3.org/2000/svg" viewBox="0 0 366.27 469.86"><defs><style>.cls-1{fill:#22386c;}.cls-2{fill:#3059a7;}.cls-3{fill:#1f4283;}</style></defs><path class="cls-1" d="M337.49,0H108.68A28.86,28.86,0,0,0,79.9,28.78V257.59a28.86,28.86,0,0,0,28.78,28.78H337.49a28.86,28.86,0,0,0,28.78-28.78V28.78A28.86,28.86,0,0,0,337.49,0ZM283.2,144.16a61.13,61.13,0,1,1-63.1-63.1A61.36,61.36,0,0,1,283.2,144.16Z"/><path class="cls-2" d="M29.7,297.35h113.1a29.7,29.7,0,0,1,29.7,29.7v113.1a29.71,29.71,0,0,1-29.71,29.71H29.71A29.71,29.71,0,0,1,0,440.16V327.06A29.7,29.7,0,0,1,29.7,297.35Z"/><path class="cls-3" d="M21.55,141.46H47.45A21.56,21.56,0,0,1,69,163v101.8a21.55,21.55,0,0,1-21.55,21.55H21.55A21.55,21.55,0,0,1,0,264.81V163A21.55,21.55,0,0,1,21.55,141.46Z"/></svg>