<?xml version="1.0" encoding="utf-8"?>
<!-- Generator: Adobe Illustrator 25.4.1, SVG Export Plug-In . SVG Version: 6.00 Build 0)  -->
<svg version="1.1" id="Layer_1" xmlns="http://www.w3.org/2000/svg" xmlns:xlink="http://www.w3.org/1999/xlink" x="0px" y="0px"
	 viewBox="0 0 470 497.5" style="enable-background:new 0 0 470 497.5;" xml:space="preserve">
<style type="text/css">
	.st0{opacity:0.75;fill:none;stroke:#263768;stroke-width:5;stroke-linecap:round;stroke-linejoin:round;}
	.st1{opacity:0.75;fill:none;stroke:#263768;stroke-width:4.88;stroke-linecap:round;stroke-linejoin:round;}
	.st2{opacity:0.75;fill:none;stroke:#263768;stroke-width:4.79;stroke-linecap:round;stroke-linejoin:round;}
	.st3{opacity:0.75;fill:none;stroke:#263768;stroke-width:4.94;stroke-linecap:round;stroke-linejoin:round;}
	.st4{opacity:0.75;fill:none;stroke:#263768;stroke-width:5.64;stroke-linecap:round;stroke-linejoin:round;}
	.st5{opacity:0.75;fill:none;stroke:#263768;stroke-width:5.84;stroke-linecap:round;stroke-linejoin:round;}
</style>
<path class="st0" d="M196,471.2c52-75.3,52-119.9,41.6-146.9c-9.3-24-30.6-44-39.7-88.5c-3.5-17.2-4.6-34.8-3.3-52.3"/>
<path class="st0" d="M183,254c-5.7-16.5-8.3-33.9-7.7-51.4c0.8-19.7,5.5-25.6,8.2-28.2c8.1-8.1,23-11.6,29.9-5.9
	c7.1,5.9,1.7,18,1.3,38.6c-0.4,23.4,6,40.7,12,56.9c13.5,36.3,33.8,44,44,63.4c12.2,23.2,11.3,65.8-51.3,150.7"/>
<path class="st0" d="M187,266.5c1.4,5.3,3.4,10.4,5.9,15.2c1.4,2.6,3,5.2,4.8,7.6"/>
<path class="st0" d="M207,305.2c7.7,10.8,13.1,23,15.8,36c12.9,61.7-43.1,113-48.2,117.6"/>
<path class="st0" d="M297.2,294.8c2-1.1,39.4-14.9,41.6-51.9c2.2-37.8-29.4-59.6-34.8-63.1c-7.5-4.9-28.2-18.5-46.1-9.9
	c-21.2,10.1-20.6,42.8-20.5,47c0.3,19.3,9.5,54,34.8,57.5c21.8,3,48.4-18.2,46.8-41c-1.3-19-22.2-37.7-37.2-33.4
	c-9.8,2.8-19.8,16-15.9,27.8c3.5,10.5,16.1,13.6,17.2,13.9"/>
<path class="st0" d="M259.2,290.5c5.3,7.3,14.5,10.6,23.2,8.3"/>
<path class="st0" d="M285.8,219.5c5.2-1.5,10.6,1.5,12,6.7c0.7,2.5,0.4,5.1-0.8,7.4"/>
<path class="st0" d="M239.2,485.3c9.9-12.8,24.7-38.2,31.2-49.1c20.2-34,35.5-59.1,35.5-74.2c0-18.4-6.5-35.1-13.5-44.2"/>
<path class="st0" d="M292.4,317.8c8.8-2.4,17.2-5.8,25.3-9.9c13.6-7,37.3-19.2,48.5-45c2.9-6.7,7.3-19.6,5.7-37.8"/>
<path class="st0" d="M316.5,325.4c8.2,11.2,12,25.1,10.5,38.9"/>
<path class="st0" d="M329.3,321c16.8-5.1,31.6-15.3,42.4-29.2c20.8-27.1,17.2-57.6,16.4-63.7"/>
<path class="st0" d="M234.8,161.8c-0.4-4.3-2.3-20.5-14-27.2c-16.2-9.4-39,6.5-48.8,15.8c-22.8,21.8-22.7,54.1-22.7,67.9
	c0.1,32.7,13.5,58.3,23.9,78.1c5.1,9.8,11,19.3,17.4,28.3"/>
<path class="st0" d="M198.3,344c2.8,4.5,4.7,9.6,5.5,14.9c3.2,21-12,37.1-14.5,39.6"/>
<path class="st0" d="M146.8,446.3c13.4-7.5,24.5-18.6,32.1-31.9"/>
<path class="st0" d="M251.8,149.4c14.9-10.6,27.4-11.4,33.3-11.2c29,1,47.6,29.8,56.9,44.2c8.1,12.6,14,26.5,17.4,41.1"/>
<path class="st0" d="M242.3,126.3c6.1-5.5,17.5-14,33.1-16.1c29.6-4.1,52.6,17.2,65,28.8c25.5,23.6,34.5,52.1,37.9,66.9
	c7.2,1.3,14.5,1.9,21.9,1.8c13.7-0.2,27.2-2.7,40-7.5"/>
<path class="st0" d="M126,429.8c10.5-9.2,19.7-19.9,27.1-31.8c9.3-14.8,17-27.2,16.4-43.7c-0.9-22.1-16.5-37.3-22.2-42.4"/>
<path class="st0" d="M134.3,294c-8.1-16.5-12.8-34.5-13.9-52.8c-2.4-40.8,14.2-70.4,20.7-81.6c8.1-14,16.7-28.8,35.1-39.4
	c13-7.3,27.6-11,42.5-10.8"/>
<path class="st0" d="M111.8,416.8c5.2-3.6,21.8-16,27.9-38.8c6-22.3-1.8-40.7-5.2-48.3c-8.3-18.9-19.3-24.1-28.6-36
	c-11.6-14.6-21.5-40.2-12.7-88.3"/>
<path class="st0" d="M96.8,192.3c6.4-17.1,15.9-33,28.1-46.6"/>
<path class="st0" d="M134.3,131.8c9.1-8.9,19.1-16.8,29.7-23.7c11.3-7.3,22-14,37.5-17.1c5.5-1.1,11-1.7,16.6-1.7"/>
<path class="st0" d="M340.2,336c3.7,9.5,5.7,19.6,5.9,29.8c0.2,17.2-5.2,29.1-14,48.2c-12.2,26.5-26.7,46.4-42.7,68.5
	c-3.8,5.3-7.1,9.6-9.2,12.5"/>
<path class="st1" d="M263.4,485.2c12.1-16.4,30.5-41.6,42.6-64.2c8-15,13.5-26.5,16.5-42.2"/>
<path class="st2" d="M435.5,186.7c-8.1,2.2-16.3,4-24.6,5.2c-6.7,1-13,1.6-18.9,1.9"/>
<path class="st2" d="M400.9,227.6c6.6-0.5,13.1-1.4,19.5-2.8c8.8-1.8,17.4-4.4,25.8-7.8"/>
<path class="st0" d="M232.3,102.4c12.8-8.6,27.6-13.7,43-15c39.8-2.9,68.3,23.5,78.8,33.2c15.9,14.8,27.9,33.3,35.2,53.8"/>
<path class="st0" d="M408.4,243.4c1,9,0.4,18.1-1.6,26.9c-3.1,13-9.4,25-18.2,34.9"/>
<path class="st0" d="M351.4,330.8c5-1.5,9.8-3.6,14.2-6.2c4.3-2.6,10.8-7.3,14.1-11.2"/>
<path class="st0" d="M359.4,342.4"/>
<path class="st0" d="M13.6,110.2c20.9-57.5,72.3-98.4,133-105.9"/>
<path class="st0" d="M157.4,3.5c4.4-0.9,13-1.1,17.2-0.9c10.6,0.5,13.4,0.8,19.7,2.2"/>
<path class="st3" d="M123.1,111.3c11-11.5,40.2-39,87.4-47.7c68-12.6,125.5,19.7,135.6,26.8"/>
<path class="st0" d="M357,100.2c22.5,19.9,39.2,45.3,48.5,73.8"/>
<path class="st0" d="M403.2,138.9l12.4,28.5l8.6-0.5"/>
<path class="st0" d="M421.2,243.4c11-1.5,21.5-5.1,31.1-10.7"/>
<path class="st0" d="M396.7,458.4c0.5-2.6,1.1-5.2,1.6-7.8c0.9-4.6,4.5-8.2,9.1-9.1l14.4-3"/>
<path class="st0" d="M378.7,466.3c0.6-10.2,4.5-20,11-27.9c15-17.7,37.5-16.9,40.3-16.8"/>
<path class="st0" d="M408.7,412.1c1.5-1.4,7.1-4.2,15.6-5.5c4.7-0.8,10,1.2,12,2.2"/>
<path class="st0" d="M363.8,478.2c-1.3-8-0.8-16.2,1.3-24c6.4-23.2,25.9-34.5,30.5-37.1"/>
<path class="st0" d="M305.6,490c34.2-35.2,57.5-79.5,67.2-127.6"/>
<path class="st0" d="M380.3,346.2c12-8.8,22.6-19.3,31.3-31.3c12.3-17,20.9-36.4,25-56.9"/>
<path class="st0" d="M2.5,198.2c3.8-17.9,6.6-41.7,17.6-70.1c9.2-23.9,27.8-56.6,43.4-69.1"/>
<path class="st0" d="M94,397.6c8.2-7.2,18.2-18.5,18.7-32.8c0.5-14.9-9.9-24.1-22.7-44.6c-10-16-18.1-33.2-24.1-51.1"/>
<path class="st0" d="M63.7,251.9c-0.9-12.3-0.5-24.7,1.4-36.9c3-19.7,9.5-38.7,19.2-56.2c5.6-10.1,12.1-19.6,19.6-28.4"/>
<path class="st0" d="M331.3,488.7c12.3-19.7,23.4-40,33.3-61c6.7-14.1,12.4-27.7,17.4-40.7"/>
<path class="st0" d="M389,363.6c10-6.7,17.1-12.3,29.9-25.1c15.8-15.5,27.3-34.8,33.4-56c2.6-9.1,6.1-21,5.8-26.4"/>
<path class="st0" d="M78.8,381.7c1.7-1.6,10.9-10.8,10.7-25.1c-0.2-7.2-2.6-14.2-7-20"/>
<path class="st4" d="M391.5,381.2c9.7-4.7,18.9-10.4,27.4-17c25.7-20,40.2-44.3,48.3-62.1"/>
<path class="st4" d="M396.6,396.5c23.6-10.1,45.2-24.2,63.8-41.9"/>
<path class="st4" d="M57,147.9c12.4-21,27.8-40.1,45.6-56.7c17.2-16.1,43.8-40.9,87.1-52.7c51.6-13.9,106.7-4.5,150.8,25.7"/>
<path class="st4" d="M355.5,76.5c5.8,3.7,11.3,7.9,16.4,12.5c11.9,10.9,21.5,24.1,28.3,38.8"/>
<path class="st4" d="M49.4,164.1c-5.2,12.8-8.7,26.3-10.2,40.1c-5.9,51.8,17.2,92.5,27.5,108.5"/>
<path class="st4" d="M5.1,228.8c2.8-1.1,5.4-2.8,7.7-4.8c8-7.5,8.7-18.7,9-22.5c1.8-23.2,11.4-51.7,15.6-62.3
	c9-22.3,23.3-41.8,34.5-53C84.2,73.9,90.8,69.6,100,63.8"/>
<path class="st4" d="M58.9,362.3c2.8-2.2,4.9-5.2,6-8.6c2-6.6-0.9-13.1-6.7-22.8c-8.3-13.9-11.4-15.5-17.1-24.7
	C29.3,286.6,23.7,263.9,25,241"/>
<path class="st4" d="M7.5,244.8c1.2,8.6,2.8,17.1,4.9,25.5c6.9,26.8,18.4,52.2,34.2,75"/>
<path class="st5" d="M78.2,49.6c11.9-9.6,25-17.7,38.9-24"/>
<path class="st4" d="M121,48.4c9.9-7.6,42.8-26,71.9-31.7c20.9-4,42.5-3.3,63.1,2.2"/>
</svg>
